<svg width="256" height="256" viewBox="0 0 256 256" fill="none" xmlns="http://www.w3.org/2000/svg">
<rect width="256" height="256" fill="#FDD801"/>
<g clip-path="url(#clip0_8_2)">
<mask id="mask0_8_2" style="mask-type:luminance" maskUnits="userSpaceOnUse" x="23" y="23" width="210" height="210">
<path d="M171.477 23H84.5234C50.545 23 23 50.545 23 84.5234V171.477C23 205.455 50.545 233 84.5234 233H171.477C205.455 233 233 205.455 233 171.477V84.5234C233 50.545 205.455 23 171.477 23Z" fill="white"/>
</mask>
<g mask="url(#mask0_8_2)">
<path d="M148.062 230.874C139.517 231.786 126.799 232.462 113.307 230.874C106.436 230.067 109.172 218.786 107.315 215.163C105.852 212.315 92.9497 214.389 78.3612 201.52C63.7794 188.657 65.0525 186.879 59.3956 180.887C54.0669 173.898 50.0769 177.225 45.4175 174.896C38.9141 171.647 32.1022 158.686 31.7675 149.269C30.1072 101.684 48.6791 114.658 51.4091 106.009C58.1356 84.6941 71.8512 59.6122 92.6741 50.766C106.98 43.8556 90.7184 28.3681 112.972 25.7169C123.478 24.47 135.376 23.8531 139.931 24.47C157.715 26.8981 148.56 42.471 157.571 44.7744C177.324 49.8275 192.798 63.7007 203.902 78.9519C207.905 84.4381 219.042 79.7525 223.707 106.843C225.729 118.557 223.845 130.638 221.686 137.555C217.906 149.676 207.951 144.446 207.308 156.14C205.287 192.943 172.723 208.889 166.653 210.504C160.596 212.125 160.557 217.079 159.526 222.178C158.706 228.314 155.7 230.06 148.062 230.874Z" fill="url(#paint0_linear_8_2)" stroke="url(#paint1_linear_8_2)" stroke-width="0.375"/>
<path fill-rule="evenodd" clip-rule="evenodd" d="M114.711 44.3282C115.308 43.2813 116.153 42.3967 117.171 41.7515C118.189 41.1063 119.35 40.7202 120.552 40.6269L133.191 39.6426C135.144 39.4976 137.075 40.1311 138.563 41.4048C140.051 42.6786 140.974 44.4892 141.132 46.4413L141.886 56.3441C165.393 59.7435 185.743 75.0801 194.57 97.2351L201.106 96.0932C202.063 95.9293 203.042 95.9555 203.989 96.1702C204.935 96.385 205.83 96.7841 206.623 97.3447C207.415 97.9054 208.089 98.6166 208.606 99.4378C209.123 100.259 209.474 101.174 209.638 102.131L211.77 114.639C211.934 115.61 211.902 116.608 211.672 117.559C211.016 121.234 210.491 124.903 209.598 128.538C208.679 132.318 207.045 138.008 202.557 138.795L197.333 139.701C196.958 141.179 196.532 142.644 196.053 144.091C194.288 171.542 177.744 193.592 151.559 201.395L149.381 211.974C148.659 215.478 146.48 218.484 142.661 218.779L130.015 219.763C129.041 219.837 128.062 219.717 127.135 219.41C126.208 219.104 125.351 218.617 124.613 217.977C123.875 217.338 123.271 216.559 122.835 215.685C122.399 214.812 122.141 213.86 122.074 212.886L121.621 204.703C96.7691 201.868 75.1259 185.737 66.365 162.171L55.3925 163.851C53.4725 164.152 51.5111 163.686 49.9313 162.554C48.3514 161.422 47.2795 159.715 46.9466 157.8L44.8203 145.299C44.4003 142.831 45.1353 137.45 45.5225 134.943C46.0278 131.649 46.9531 126.156 49.6241 123.669C50.7594 122.297 52.3541 121.392 54.1063 121.129L64.58 119.521C64.8622 118.504 65.1706 117.5 65.4988 116.509C67.6775 89.7341 85.7441 67.7169 110.872 59.1988C111.121 56.8626 111.462 54.5001 111.869 52.236C112.302 49.8735 112.88 46.2969 114.717 44.3216L114.711 44.3282ZM150.332 153.902C153.972 151.828 157.239 149.159 159.999 146.008C158.332 145.908 156.747 145.248 155.503 144.134C154.259 143.02 153.429 141.518 153.148 139.872L151.015 127.37C150.424 123.859 150.752 120.584 151.645 117.172C152.104 115.459 152.701 113.74 153.207 112.053C150.112 109.328 146.482 107.281 142.549 106.042L141.407 110.006C140.442 113.333 138.566 116.214 134.759 116.503L122.113 117.487C120.164 117.628 118.237 116.994 116.752 115.722C115.267 114.45 114.345 112.643 114.186 110.695L113.877 106.77C109.999 108.444 106.422 110.745 103.292 113.582C105.211 113.285 107.17 113.752 108.748 114.884C110.326 116.015 111.397 117.72 111.732 119.633L113.858 132.141C114.028 133.145 113.989 134.175 113.746 135.16C112.933 138.927 112.171 146.815 109.625 151.835C113.674 154.715 118.242 156.783 123.078 157.925L122.809 153.023C122.698 151.092 123.343 149.193 124.609 147.73C125.875 146.267 127.661 145.355 129.588 145.187L142.241 144.209C143.214 144.134 144.193 144.253 145.12 144.559C146.047 144.865 146.904 145.352 147.641 145.992C148.378 146.632 148.982 147.412 149.415 148.286C149.849 149.161 150.105 150.113 150.168 151.087L150.332 153.922V153.902Z" fill="#010740"/>
<path fill-rule="evenodd" clip-rule="evenodd" d="M114.534 41.4407C115.132 40.3942 115.976 39.5099 116.994 38.8647C118.012 38.2196 119.173 37.8333 120.374 37.7394L133.014 36.7616C134.966 36.6166 136.896 37.2492 138.384 38.5216C139.871 39.7939 140.795 41.6028 140.954 43.5538L141.722 53.4566C165.229 56.8494 185.579 72.1926 194.406 94.3541L200.942 93.2057C201.899 93.0418 202.878 93.068 203.825 93.2827C204.771 93.4975 205.666 93.8966 206.458 94.4572C207.251 95.0179 207.925 95.7291 208.442 96.5503C208.959 97.3715 209.31 98.2865 209.473 99.2432L211.6 111.745C211.764 112.716 211.731 113.713 211.508 114.672C210.845 118.347 210.327 122.015 209.441 125.657C208.515 129.431 206.881 135.12 202.392 135.908L197.156 136.813C196.781 138.292 196.354 139.756 195.876 141.204C194.117 168.655 177.567 190.705 151.382 198.501L149.203 209.08C148.482 212.591 146.303 215.596 142.483 215.892L129.837 216.876C128.864 216.949 127.885 216.828 126.959 216.521C126.032 216.213 125.175 215.725 124.439 215.084C123.702 214.443 123.1 213.663 122.667 212.787C122.234 211.912 121.979 210.96 121.917 209.985L121.457 201.808C96.605 198.973 74.9619 182.843 66.2009 159.27L55.2284 160.95C53.3096 161.249 51.35 160.784 49.7707 159.654C48.1914 158.524 47.1185 156.819 46.7825 154.906L44.6497 142.405C44.2297 139.937 44.9712 134.556 45.3584 132.049C45.8637 128.755 46.7891 123.262 49.46 120.768C50.5959 119.406 52.1896 118.506 53.9422 118.235L64.4159 116.627C64.7017 115.616 65.0124 114.611 65.3478 113.615C67.5134 86.8466 85.58 64.836 110.701 56.3179C110.951 53.9751 111.292 51.6191 111.699 49.3485C112.125 46.986 112.709 43.416 114.553 41.4407H114.534ZM150.148 151.021C153.787 148.945 157.052 146.274 159.808 143.12C158.14 143.022 156.554 142.363 155.309 141.249C154.064 140.134 153.232 138.631 152.951 136.984L150.824 124.483C150.234 120.978 150.562 117.703 151.454 114.284C151.907 112.578 152.504 110.859 153.023 109.166C149.925 106.444 146.292 104.399 142.359 103.161L141.217 107.118C140.252 110.445 138.382 113.333 134.576 113.622L121.917 114.606C119.966 114.746 118.039 114.11 116.555 112.837C115.07 111.564 114.148 109.756 113.989 107.807L113.687 103.883C109.808 105.555 106.231 107.857 103.102 110.695C105.022 110.398 106.981 110.866 108.559 111.999C110.138 113.131 111.208 114.838 111.541 116.752L113.667 129.253C113.838 130.258 113.799 131.288 113.556 132.272C112.736 136.046 111.981 143.927 109.428 148.954C113.479 151.834 118.05 153.902 122.888 155.044L122.619 150.142C122.506 148.207 123.152 146.305 124.421 144.84C125.69 143.376 127.48 142.464 129.411 142.3L142.057 141.315C143.031 141.24 144.01 141.359 144.938 141.665C145.866 141.971 146.724 142.458 147.462 143.097C148.201 143.737 148.805 144.517 149.24 145.391C149.675 146.266 149.933 147.218 149.997 148.193L150.148 151.028V151.021Z" fill="#010740"/>
<path d="M115.4 73.9118C88.8875 79.8509 65.5709 103.023 65.9319 135.599L52.3541 123.557C49.565 125.408 48.2853 139.898 48.5938 141.716L50.7266 154.217C50.8778 155.096 51.3688 155.88 52.0933 156.399C52.8179 156.918 53.7178 157.132 54.5984 156.993L68.9047 154.808C77.1078 181.11 101.002 196.624 125.263 198.12L125.913 209.782C125.947 210.222 126.068 210.65 126.267 211.043C126.467 211.436 126.743 211.786 127.078 212.073C127.413 212.359 127.802 212.577 128.221 212.713C128.641 212.849 129.083 212.901 129.523 212.866L142.168 211.895C144.013 211.751 144.892 210.09 145.266 208.286L147.93 195.298C173.957 188.578 192.995 166.128 191.965 133.644L201.677 131.951C205.037 131.36 206.573 119.246 207.551 113.838C204.604 110.412 200.24 112.512 198.416 112.827L188.572 114.54C180.224 89.8193 157.846 74.8962 134.746 72.7109L133.742 59.5072C133.67 58.6205 133.25 57.7983 132.574 57.2204C131.897 56.6424 131.02 56.3557 130.133 56.4228L117.756 44.0197C115.912 44.164 114.252 59.1659 114.396 61.0034L115.4 73.9118ZM126.523 161.948C125.639 162.026 124.821 162.448 124.245 163.123C123.668 163.798 123.379 164.672 123.439 165.557L123.997 175.493C110.203 174.003 96.5722 165.597 90.7513 151.441L103.765 149.453C107.112 148.934 108.903 134.7 109.638 131.353C110.019 129.555 102.334 130.041 100.497 130.33L87.9622 132.233C89.6422 114.809 102.636 102.524 117.283 98.3178L117.999 107.486C118.069 108.373 118.489 109.197 119.165 109.777C119.841 110.356 120.72 110.644 121.608 110.577L134.254 109.599C136.092 109.461 136.833 107.761 137.338 105.989L139.583 98.2587C146.67 99.755 152.629 102.898 157.498 107.873C156.416 112.729 153.692 117.5 154.775 123.793L156.901 136.302C157.052 137.179 157.544 137.96 158.27 138.475C158.995 138.991 159.895 139.198 160.773 139.051L168.976 137.621C168.425 154.814 157 167.48 143.277 172.861L142.785 164.041C142.753 163.601 142.634 163.171 142.435 162.777C142.235 162.382 141.96 162.031 141.624 161.744C141.289 161.457 140.9 161.239 140.48 161.102C140.059 160.966 139.616 160.914 139.176 160.95L126.523 161.948Z" fill="#A10008"/>
<path d="M157.026 107.407C158.384 107.171 160.753 106.055 160.583 107.407L159.402 116.417L160.904 122.356C162.132 124.259 161.429 126.733 161.009 128.066L158.503 135.987C157.905 137.89 157.131 137.64 156.914 136.341L154.782 123.839C153.712 117.546 156.429 112.775 157.505 107.919L157.026 107.433V107.407Z" fill="#F10100"/>
<path d="M91.1187 152.301H88.6053V132.154L100.516 130.336C102.341 130.054 110.032 129.575 109.658 131.367C108.923 134.713 107.131 148.954 103.784 149.459L90.7709 151.461C90.8891 151.75 91.0137 152.032 91.1516 152.314L91.1187 152.301Z" fill="url(#paint2_linear_8_2)"/>
<path d="M191.958 139.038C192.024 137.266 192.03 135.468 191.958 133.631L201.671 131.937C205.031 131.347 206.566 119.232 207.544 113.825C204.597 110.399 200.233 112.499 198.409 112.814L188.565 114.521C187.892 112.539 187.121 110.592 186.255 108.687V139.038H191.958Z" fill="url(#paint3_linear_8_2)"/>
<path d="M133.46 108.378L137.483 77.2522C151.638 76.6353 170.335 85.1337 173.524 105.313L157.498 107.886C152.636 102.918 146.67 99.7681 139.583 98.2718L137.345 106.002C136.833 107.781 136.098 109.474 134.261 109.612L133.46 108.378Z" fill="url(#paint4_linear_8_2)"/>
<path d="M117.29 98.3507L120.479 82.7057L103.089 83.3226C103.089 83.3226 87.0566 99.3613 85.9606 108.739C85.1469 115.564 89.3075 118.34 91.6372 119.338C96.7888 108.772 106.606 101.396 117.297 98.3507H117.29Z" fill="url(#paint5_linear_8_2)"/>
<path d="M147.084 199.439L147.937 195.285C173.741 188.624 192.667 166.515 191.991 134.497L188.06 132.456L162.86 157.177C159.688 161.973 155.534 166.042 150.673 169.114L142.011 177.606L147.064 199.439H147.084Z" fill="url(#paint6_linear_8_2)"/>
<path d="M147.084 199.439L147.943 195.285C151.616 194.347 155.195 193.073 158.634 191.479C158.857 179.273 168.149 171.345 168.149 171.345C163.917 170.965 142.227 178.531 142.227 178.531L147.071 199.439H147.084Z" fill="#A10008"/>
<path d="M147.95 195.285C173.058 188.815 191.656 167.67 192.011 137.023L183.998 136.459L185.77 143.31C186.373 144.36 186.728 147.983 186.098 152.833C183.814 170.368 167.296 190.265 148.468 193.008L147.95 195.285Z" fill="url(#paint7_linear_8_2)"/>
<path d="M53.3975 135.521L50.7331 154.23C50.8874 155.107 51.3796 155.887 52.1038 156.404C52.8281 156.921 53.7263 157.132 54.605 156.993L68.9112 154.808L77.3375 145.942L73.7938 136.361L53.3975 135.534V135.521Z" fill="url(#paint8_linear_8_2)"/>
<path d="M68.9047 154.788C77.1078 181.097 101.008 196.598 125.263 198.12L128.453 182.482V176.891L73.8528 137.128L69.1737 139.589C70.1187 139.445 71.8447 140.298 71.51 142.017L68.9047 154.788Z" fill="url(#paint9_linear_8_2)"/>
<path d="M69.1212 153.738L68.9047 154.788C77.1078 181.097 101.008 196.598 125.263 198.12L126.241 193.284C100.142 197.005 75.6181 173.485 69.1212 153.751V153.738Z" fill="url(#paint10_linear_8_2)"/>
<path d="M52.2884 129.017L52.3541 123.57C49.565 125.427 48.2853 139.911 48.5938 141.729L50.7266 154.23C50.8404 154.908 51.1614 155.534 51.6453 156.022C53.1744 156.048 53.3056 154.394 53.3056 154.394L54.5131 145.417C54.8675 142.693 54.3819 141.223 53.9291 138.592L52.3081 129.011H52.2884V129.017Z" fill="#F10100"/>
<path d="M163.897 120.02C163.897 120.02 159.684 130.999 157.905 138.185C158.283 138.546 158.739 138.813 159.238 138.965C159.737 139.118 160.265 139.152 160.78 139.064L168.983 137.634C168.911 139.765 168.667 141.887 168.254 143.98C171.109 142.227 173.307 139.596 174.535 136.485C178.958 125.749 175.637 117.467 175.637 117.467L163.903 120.027L163.897 120.02Z" fill="url(#paint11_linear_8_2)"/>
<path d="M123.577 93.4879C123.577 93.4879 119.515 102.853 118.622 109.205C118.959 109.673 119.411 110.046 119.934 110.288C120.457 110.531 121.033 110.634 121.608 110.59L134.254 109.612C136.092 109.474 136.833 107.774 137.338 106.003L139.583 98.2719L140.239 91.9982L123.57 93.4879H123.577Z" fill="url(#paint12_linear_8_2)"/>
<path d="M129.536 212.853L142.182 211.875C144.019 211.738 144.898 210.077 145.266 208.266L147.937 195.285L143.415 195.029C140.029 195.64 136.918 197.182 132.718 197.208C131.314 197.208 129.503 197.477 128.958 200.096L127.331 207.99C126.858 210.281 126.95 213.057 129.523 212.853H129.536Z" fill="url(#paint13_linear_8_2)"/>
<path fill-rule="evenodd" clip-rule="evenodd" d="M118.589 58.2669C92.0769 64.206 68.7669 87.3848 69.1213 119.974L54.5394 122.205C54.1027 122.277 53.6845 122.434 53.3091 122.668C52.9336 122.903 52.6083 123.209 52.352 123.569C52.0957 123.93 51.9134 124.338 51.8158 124.77C51.7181 125.201 51.707 125.648 51.7831 126.084L53.9159 138.585C54.0717 139.46 54.5646 140.239 55.2886 140.755C56.0127 141.27 56.91 141.481 57.7878 141.342L72.0941 139.143C80.2972 165.459 104.198 180.966 128.453 182.462L129.102 194.124C129.136 194.564 129.255 194.993 129.455 195.386C129.655 195.78 129.93 196.13 130.266 196.417C130.601 196.703 130.99 196.921 131.41 197.057C131.83 197.193 132.272 197.244 132.712 197.208L145.358 196.23C146.243 196.153 147.062 195.732 147.638 195.057C148.215 194.382 148.504 193.507 148.442 192.621L147.786 180.612C173.806 173.885 196.198 150.463 195.167 117.986L204.88 116.293C205.756 116.14 206.536 115.648 207.051 114.923C207.566 114.197 207.774 113.298 207.629 112.421L205.497 99.9126C205.346 99.0356 204.854 98.254 204.128 97.7387C203.403 97.2234 202.502 97.0164 201.625 97.1629L191.781 98.8757C183.44 74.1613 161.049 59.2382 137.955 57.0463L136.938 43.8688C136.866 42.9816 136.446 42.1589 135.77 41.5799C135.094 41.0009 134.216 40.7126 133.329 40.7779L120.676 41.7623C119.79 41.8343 118.967 42.2544 118.389 42.9307C117.812 43.607 117.525 44.4846 117.592 45.3716L118.589 58.2669ZM129.719 146.296C128.835 146.375 128.017 146.797 127.441 147.472C126.864 148.146 126.575 149.02 126.635 149.906L127.186 159.848C113.392 158.352 99.7681 149.945 93.9406 135.796L106.954 133.808C107.39 133.736 107.808 133.579 108.183 133.345C108.558 133.112 108.883 132.806 109.139 132.446C109.395 132.086 109.577 131.679 109.676 131.248C109.774 130.817 109.785 130.371 109.71 129.936L107.577 117.428C107.42 116.554 106.926 115.778 106.202 115.265C105.478 114.752 104.582 114.543 103.706 114.685L91.1581 116.588C92.8512 99.1644 105.845 86.886 120.486 82.6729L121.188 91.8735C121.26 92.7602 121.68 93.5823 122.357 94.1603C123.033 94.7382 123.91 95.025 124.798 94.9579L137.443 93.9866C138.33 93.9146 139.152 93.4945 139.73 92.8182C140.308 92.1419 140.595 91.2643 140.528 90.3773L139.885 81.951C151.494 84.3069 162.466 91.5651 168.156 103.017L160.714 104.303C159.839 104.457 159.06 104.95 158.547 105.675C158.033 106.4 157.826 107.298 157.971 108.175L160.097 120.689C160.248 121.566 160.74 122.348 161.466 122.863C162.191 123.379 163.091 123.586 163.969 123.439L172.172 122.009C171.614 139.202 160.189 151.868 146.473 157.249L145.975 148.429C145.942 147.988 145.823 147.558 145.624 147.164C145.425 146.769 145.15 146.418 144.814 146.13C144.479 145.842 144.09 145.623 143.669 145.486C143.249 145.349 142.806 145.297 142.365 145.332L129.719 146.316V146.296Z" fill="url(#paint14_linear_8_2)"/>
<path fill-rule="evenodd" clip-rule="evenodd" d="M118.589 58.2669C92.0769 64.2059 68.7669 87.3847 69.1212 119.974L54.5394 122.205C54.1023 122.276 53.6837 122.433 53.3078 122.667C52.9319 122.901 52.6062 123.207 52.3497 123.568C52.0933 123.929 51.9111 124.337 51.8138 124.769C51.7166 125.201 51.7061 125.648 51.7831 126.084L53.9159 138.585C54.0717 139.46 54.5646 140.239 55.2886 140.755C56.0127 141.27 56.91 141.481 57.7878 141.342L72.0941 139.143C73.8599 144.835 76.4559 150.235 79.7984 155.169L98.7969 144.236C96.8175 141.648 95.1849 138.813 93.9406 135.803L106.954 133.808C107.39 133.736 107.808 133.579 108.183 133.345C108.558 133.112 108.883 132.806 109.139 132.446C109.395 132.086 109.577 131.679 109.676 131.248C109.774 130.817 109.785 130.371 109.71 129.936L107.577 117.428C107.419 116.555 106.925 115.78 106.201 115.267C105.477 114.754 104.581 114.545 103.706 114.685L91.1581 116.588C92.8512 99.1644 105.845 86.886 120.486 82.6728L121.188 91.8734C121.26 92.7601 121.68 93.5823 122.357 94.1602C123.033 94.7381 123.91 95.0249 124.798 94.9578L137.443 93.9866C138.33 93.9145 139.152 93.4945 139.73 92.8182C140.308 92.1418 140.595 91.2643 140.528 90.3772L139.885 81.9509C151.494 84.3069 162.466 91.565 168.156 103.017L160.714 104.303C159.839 104.457 159.06 104.95 158.547 105.675C158.033 106.4 157.826 107.298 157.971 108.175L158.273 110.006L189.097 92.2541C179.266 71.51 158.909 59.0413 137.955 57.0594L136.938 43.8819C136.866 42.9947 136.446 42.1719 135.77 41.5929C135.094 41.014 134.216 40.7257 133.329 40.7909L120.676 41.7688C119.79 41.8408 118.967 42.2609 118.389 42.9372C117.812 43.6135 117.525 44.4911 117.592 45.3781L118.589 58.2669Z" fill="url(#paint15_linear_8_2)"/>
<path fill-rule="evenodd" clip-rule="evenodd" d="M118.589 58.2669C92.0769 64.206 68.7669 87.3848 69.1213 119.974L54.5394 122.205C54.1027 122.277 53.6845 122.434 53.3091 122.668C52.9336 122.903 52.6083 123.209 52.352 123.569C52.0957 123.93 51.9134 124.338 51.8158 124.77C51.7181 125.201 51.707 125.648 51.7831 126.084C52.505 130.258 53.2072 134.418 53.9159 138.585C54.0717 139.46 54.5646 140.239 55.2886 140.755C56.0127 141.27 56.91 141.481 57.7878 141.342L72.0941 139.143C80.2972 165.459 104.198 180.966 128.453 182.462L129.102 194.124C129.136 194.564 129.255 194.993 129.455 195.386C129.655 195.78 129.93 196.13 130.266 196.417C130.601 196.703 130.99 196.921 131.41 197.057C131.83 197.193 132.272 197.244 132.712 197.208L145.358 196.23C146.243 196.153 147.062 195.732 147.638 195.057C148.215 194.382 148.504 193.507 148.442 192.621L147.779 180.612C173.806 173.885 196.191 150.463 195.161 117.986L204.873 116.293C205.749 116.14 206.53 115.648 207.045 114.923C207.56 114.197 207.767 113.298 207.623 112.421L205.49 99.9126C205.339 99.0356 204.847 98.254 204.121 97.7387C203.396 97.2234 202.496 97.0164 201.618 97.1629L191.774 98.8757C183.433 74.1613 161.049 59.2382 137.955 57.0463L136.925 43.8688C136.853 42.9816 136.433 42.1589 135.757 41.5799C135.081 41.0009 134.203 40.7126 133.316 40.7779L120.67 41.7623C119.783 41.8343 118.961 42.2544 118.383 42.9307C117.805 43.607 117.518 44.4846 117.585 45.3716L118.576 58.2669H118.589ZM136.229 146.972C144.183 146.355 144.203 146.067 144.104 151.251C144.072 153.154 143.133 161.147 147.399 159.244C156.153 155.326 162.906 147.963 167.329 141.788C171.621 135.803 173.419 131.36 174.095 122.461C174.259 120.217 173.491 119.705 170.085 120.867C163.431 123.131 162.013 122.967 160.57 114.396C159.041 105.419 160.504 106.633 168.484 105.254C168.844 105.192 169.183 105.044 169.474 104.823C169.765 104.602 169.999 104.315 170.155 103.985C170.312 103.656 170.388 103.293 170.376 102.928C170.363 102.563 170.264 102.206 170.085 101.888C163.713 90.4494 154.913 83.001 141.65 79.9691C139.826 79.5557 138.139 78.9979 138.336 81.5966C139.222 92.9826 138.467 92.2804 131.623 93.2188C126.077 93.9801 123.616 94.3213 123.15 88.3429C123 86.4195 122.873 84.4944 122.77 82.5679C122.74 82.2224 122.633 81.888 122.456 81.5898C122.28 81.2916 122.037 81.0373 121.748 80.846C121.459 80.6546 121.13 80.5313 120.787 80.4851C120.443 80.439 120.093 80.4712 119.764 80.5794C111.049 83.4998 104.349 88.7169 99.3416 94.131C93.8028 100.123 90.9613 106.396 89.6028 116.03C89.1631 119.2 90.5609 118.721 93.1925 118.038C95.3733 117.548 97.5826 117.196 99.8075 116.982C104.795 116.457 106.534 118.228 107.21 122.56C108.634 131.649 109.284 131.137 93.6781 133.532C93.3291 133.59 92.9979 133.727 92.7106 133.933C92.4233 134.14 92.1876 134.41 92.0218 134.722C91.856 135.035 91.7647 135.381 91.7549 135.735C91.7451 136.089 91.8171 136.44 91.9653 136.761C99.4203 152.557 110.524 159.717 126.865 162.066C130.349 162.565 129.372 157.899 129.194 155.969C128.433 147.832 127.672 147.635 136.236 146.966L136.229 146.972ZM119.534 51.9669C118.931 44.1116 120.204 42.3726 126.733 42.4513C133.526 42.5432 135.409 42.3791 135.967 49.6044C136.768 59.9601 136.479 59.3104 142.254 60.0323C154.132 61.5219 165.8 66.3585 174.535 74.6469C182.2 81.9248 186.721 90.1148 189.602 99.6501C189.778 100.163 190.135 100.593 190.607 100.861C191.078 101.128 191.631 101.213 192.162 101.1C203.121 99.066 203.823 97.8848 205.208 105.32C206.789 113.832 207.17 113.563 194.747 115.728C194.213 115.818 193.728 116.096 193.38 116.511C193.031 116.925 192.841 117.45 192.844 117.992C193.041 144.938 179.804 165.715 155.471 176.254C147.327 179.778 144.944 176.254 146.414 186.446C147.858 196.421 145.227 194.747 137.621 195.39C131.111 195.942 131.399 194.426 130.73 182.305C130.697 181.754 130.466 181.234 130.081 180.84C129.695 180.445 129.18 180.204 128.63 180.159C102.708 177.941 82.9025 163.621 74.2794 138.402C74.1101 137.892 73.7651 137.458 73.3058 137.18C72.8465 136.901 72.3031 136.794 71.7725 136.879L66.3191 137.713C55.4581 139.373 54.8938 136.853 54.0734 132.935C52.61 126.149 53.1941 123.866 62.5653 122.455C71.8381 121.037 71.2278 122.068 71.6806 114.744C73.2425 89.3929 89.3731 69.1344 113.943 61.8566C120.296 59.9798 120.178 60.1898 119.534 51.9669ZM129.719 146.296C128.835 146.375 128.017 146.797 127.441 147.472C126.864 148.146 126.575 149.02 126.635 149.906L127.186 159.848C113.392 158.352 99.7681 149.945 93.9406 135.796L106.954 133.808C107.39 133.736 107.808 133.579 108.183 133.345C108.558 133.112 108.883 132.806 109.139 132.446C109.395 132.086 109.577 131.679 109.676 131.248C109.774 130.817 109.785 130.371 109.71 129.936L107.577 117.428C107.42 116.554 106.926 115.778 106.202 115.265C105.478 114.752 104.582 114.543 103.706 114.685L91.1581 116.588C92.8512 99.171 105.845 86.886 120.486 82.6729L121.188 91.8735C121.26 92.7602 121.68 93.5823 122.357 94.1603C123.033 94.7382 123.91 95.025 124.798 94.9579L137.443 93.9866C138.33 93.9146 139.152 93.4945 139.73 92.8182C140.308 92.1419 140.595 91.2643 140.528 90.3773L139.885 81.951C151.494 84.3069 162.466 91.5651 168.156 103.017L160.714 104.309C159.837 104.46 159.056 104.953 158.542 105.678C158.028 106.404 157.823 107.304 157.971 108.181C158.673 112.355 159.388 116.522 160.097 120.689C160.248 121.566 160.74 122.348 161.466 122.863C162.191 123.379 163.091 123.586 163.969 123.439L172.172 122.009C171.614 139.202 160.189 151.868 146.473 157.249L145.975 148.429C145.942 147.988 145.823 147.558 145.624 147.164C145.425 146.769 145.15 146.418 144.814 146.13C144.479 145.842 144.09 145.623 143.669 145.486C143.249 145.349 142.806 145.297 142.365 145.332L129.719 146.316V146.296Z" fill="url(#paint16_linear_8_2)"/>
<path fill-rule="evenodd" clip-rule="evenodd" d="M188.605 146.021C188.605 146.021 183.368 144.708 180.369 145.017C179.463 144.826 186.459 151.52 186.459 151.52C186.459 151.52 187.981 147.648 188.605 146.021Z" fill="#FF433F"/>
<path fill-rule="evenodd" clip-rule="evenodd" d="M69.7513 109.835C70.775 109.927 75.3097 109.54 78.1316 110.951L69.1606 116.798C69.2263 114.468 69.4231 112.138 69.7513 109.835Z" fill="#AC0505"/>
<path fill-rule="evenodd" clip-rule="evenodd" d="M69.1737 116.798L78.1447 110.957C78.1447 110.957 75.2769 116.942 70.2894 118.753L69.4625 118.196L69.1737 116.798Z" fill="#FF6966"/>
<path d="M184.424 155.215C182.685 154.322 179.135 153.522 178.387 154.559C177.508 155.759 177.055 158.05 177.219 161.213C179.174 161.009 183.086 157.603 184.424 155.215Z" fill="#FF433F"/>
<path d="M183.519 156.527C182.121 155.169 179.404 153.777 178.393 154.558C177.199 155.451 178.118 159.572 179.306 161.646C181.537 163.569 182.83 161.738 183.519 156.527Z" fill="#AC0505"/>
<path fill-rule="evenodd" clip-rule="evenodd" d="M189.202 146.985C189.202 146.985 181.281 145.082 180.362 145.017C179.443 144.951 187.358 150.522 187.358 150.522C187.358 150.522 188.834 148.692 189.202 146.985Z" fill="#AC0505"/>
</g>
</g>
<defs>
<linearGradient id="paint0_linear_8_2" x1="94.61" y1="235.441" x2="92.1819" y2="39.3341" gradientUnits="userSpaceOnUse">
<stop stop-color="#0A185A"/>
<stop offset="1" stop-color="#1D3788"/>
</linearGradient>
<linearGradient id="paint1_linear_8_2" x1="99.1184" y1="216.062" x2="66.4437" y2="44.84" gradientUnits="userSpaceOnUse">
<stop stop-color="#1D3788"/>
<stop offset="1" stop-color="#386AFF"/>
</linearGradient>
<linearGradient id="paint2_linear_8_2" x1="98.9084" y1="131.452" x2="96.6247" y2="152.006" gradientUnits="userSpaceOnUse">
<stop stop-color="#C8010D"/>
<stop offset="1" stop-color="#732D7C"/>
</linearGradient>
<linearGradient id="paint3_linear_8_2" x1="196.67" y1="112.887" x2="193.139" y2="138.487" gradientUnits="userSpaceOnUse">
<stop stop-color="#C30006"/>
<stop offset="1" stop-color="#543E93"/>
</linearGradient>
<linearGradient id="paint4_linear_8_2" x1="135.304" y1="88.52" x2="168.943" y2="111.896" gradientUnits="userSpaceOnUse">
<stop stop-color="#700600"/>
<stop offset="1" stop-color="#BF0408"/>
</linearGradient>
<linearGradient id="paint5_linear_8_2" x1="117.92" y1="83.6704" x2="89.0056" y2="110.445" gradientUnits="userSpaceOnUse">
<stop stop-color="#780600"/>
<stop offset="1" stop-color="#D5040A"/>
</linearGradient>
<linearGradient id="paint6_linear_8_2" x1="149.866" y1="183.138" x2="197.149" y2="143.172" gradientUnits="userSpaceOnUse">
<stop stop-color="#AE000A"/>
<stop offset="1" stop-color="#D9001C"/>
</linearGradient>
<linearGradient id="paint7_linear_8_2" x1="172.94" y1="144.997" x2="166.515" y2="194.741" gradientUnits="userSpaceOnUse">
<stop stop-color="#C30006"/>
<stop offset="1" stop-color="#543E93"/>
</linearGradient>
<linearGradient id="paint8_linear_8_2" x1="65.8662" y1="139.524" x2="58.385" y2="157.144" gradientUnits="userSpaceOnUse">
<stop stop-color="#820600"/>
<stop offset="1" stop-color="#C20408"/>
</linearGradient>
<linearGradient id="paint9_linear_8_2" x1="124.909" y1="192.851" x2="69.9284" y2="151.198" gradientUnits="userSpaceOnUse">
<stop stop-color="#6E0500"/>
<stop offset="1" stop-color="#D5040A"/>
</linearGradient>
<linearGradient id="paint10_linear_8_2" x1="123.505" y1="200.489" x2="71.8184" y2="162.447" gradientUnits="userSpaceOnUse">
<stop stop-color="#900503"/>
<stop offset="1" stop-color="#543E93"/>
</linearGradient>
<linearGradient id="paint11_linear_8_2" x1="167.821" y1="121.831" x2="166.778" y2="143.875" gradientUnits="userSpaceOnUse">
<stop stop-color="#C30006"/>
<stop offset="1" stop-color="#543E93"/>
</linearGradient>
<linearGradient id="paint12_linear_8_2" x1="122.317" y1="95.7388" x2="136.82" y2="105.983" gradientUnits="userSpaceOnUse">
<stop stop-color="#820600"/>
<stop offset="1" stop-color="#BE0507"/>
</linearGradient>
<linearGradient id="paint13_linear_8_2" x1="137.476" y1="197.858" x2="137.529" y2="212.171" gradientUnits="userSpaceOnUse">
<stop stop-color="#C30006"/>
<stop offset="1" stop-color="#752B68"/>
</linearGradient>
<linearGradient id="paint14_linear_8_2" x1="134.595" y1="197.116" x2="124.883" y2="43.3241" gradientUnits="userSpaceOnUse">
<stop stop-color="#FD2025"/>
<stop offset="1" stop-color="#FF413D"/>
</linearGradient>
<linearGradient id="paint15_linear_8_2" x1="128.157" y1="145.568" x2="105.865" y2="45.0434" gradientUnits="userSpaceOnUse">
<stop stop-color="#FF3632"/>
<stop offset="1" stop-color="#FF5F5C"/>
</linearGradient>
<linearGradient id="paint16_linear_8_2" x1="134.996" y1="197.077" x2="124.483" y2="43.1404" gradientUnits="userSpaceOnUse">
<stop stop-color="#FF7977"/>
<stop offset="0.48" stop-color="#FF3B37"/>
<stop offset="1" stop-color="#FFA09E"/>
</linearGradient>
<clipPath id="clip0_8_2">
<rect width="210" height="210" fill="white" transform="translate(23 23)"/>
</clipPath>
</defs>
</svg>
